<?xml version="1.0" encoding="iso-8859-1"?>
<!-- Generator: Adobe Illustrator 19.0.0, SVG Export Plug-In . SVG Version: 6.00 Build 0)  -->
<svg version="1.1" id="Capa_1" xmlns="http://www.w3.org/2000/svg" xmlns:xlink="http://www.w3.org/1999/xlink" x="0px" y="0px"
	 viewBox="0 0 498.56 498.56" style="enable-background:new 0 0 498.56 498.56;" xml:space="preserve">
<g>
	<g>
		<g>
			<path d="M86.4,198.069c11.917-7.678,24.745-13.841,38.187-18.347l-10.027-21.333l57.387-27.947L152.96,92.256l-58.24,28.373
				L48.427,24.843L9.387,43.829l48,95.573L0,167.776l18.773,38.187l57.387-28.16L86.4,198.069z"/>
			<path d="M369.067,204.683h-0.213c-39.429-17.022-84.278-16.245-123.093,2.133c-73.939-36.539-163.499-6.22-200.037,67.719
				c-36.539,73.939-6.22,163.499,67.719,200.037c41.102,20.311,89.255,20.617,130.612,0.83l5.76,3.2
				c75.641,32.931,163.656-1.692,196.587-77.333S444.708,237.614,369.067,204.683z M407.253,384.096l-0.213,0
				c-20.373,46.505-70.702,72.206-120.32,61.44c7.355-7.338,13.932-15.417,19.627-24.107c32.991-50.21,32.316-115.391-1.707-164.907
				c-15.265,0.925-30.001,5.935-42.667,14.507c5.778,6.469,10.723,13.636,14.72,21.333c17.398,36.161,13.029,79.026-11.307,110.933
				c-9.871,13.701-22.896,24.823-37.973,32.427c-52.666,26.395-116.758,5.098-143.153-47.569
				c-26.395-52.666-5.098-116.758,47.569-143.153c14.965-7.5,31.485-11.373,48.224-11.305c7.839,0.119,15.639,1.121,23.253,2.987
				c-12.936,13.057-23.351,28.389-30.72,45.227c-20.951,46.794-15.766,101.156,13.653,143.147
				c11.026-0.583,21.828-3.338,31.787-8.107c3.586-2.005,7.01-4.287,10.24-6.827c-7.673-8.791-13.804-18.817-18.133-29.653
				c-10.369-26.354-9.831-55.749,1.493-81.707c23.564-54.021,86.459-78.711,140.48-55.147
				C406.127,267.18,430.818,330.075,407.253,384.096z"/>
			<path d="M465.493,20.789C461.058,9.908,448.658,4.662,437.76,9.056l-84.267,32.853l15.573,39.68l36.267-14.293l-48,110.507
				c13.675,4.036,26.791,9.769,39.04,17.067l48.213-110.507l14.293,36.267l39.68-15.573L465.493,20.789z"/>
		</g>
	</g>
</g>
<g>
</g>
<g>
</g>
<g>
</g>
<g>
</g>
<g>
</g>
<g>
</g>
<g>
</g>
<g>
</g>
<g>
</g>
<g>
</g>
<g>
</g>
<g>
</g>
<g>
</g>
<g>
</g>
<g>
</g>
</svg>
