<svg height="512pt" viewBox="-76 0 512 512" width="512pt" xmlns="http://www.w3.org/2000/svg"><path d="m0 180c0 35.230469 10.175781 69.339844 29.429688 98.664062l137.761718 226.140626c2.71875 4.46875 7.574219 7.195312 12.808594 7.195312s10.089844-2.726562 12.8125-7.195312l137.757812-226.140626c19.253907-29.324218 29.429688-63.433593 29.429688-98.664062 0-99.253906-80.746094-180-180-180s-180 80.746094-180 180zm180-150c82.710938 0 150 67.289062 150 150 0 29.4375-8.519531 57.929688-24.632812 82.390625-.097657.148437-.191407.296875-.28125.449219l-125.085938 205.328125s-125.269531-205.628907-125.367188-205.777344c-16.113281-24.460937-24.632812-52.953125-24.632812-82.390625 0-82.710938 67.289062-150 150-150zm0 0"/><path d="m180 300c66.167969 0 120-53.832031 120-120s-53.832031-120-120-120-120 53.832031-120 120 53.832031 120 120 120zm-88.742188-105h29.183594c1.324219 22.890625 5.648438 44.289062 12.546875 61.714844-21.707031-13.351563-37.339843-35.648438-41.730469-61.714844zm88.742188-105c9.59375 0 26.464844 28.113281 29.519531 75h-59.039062c3.054687-46.886719 19.925781-75 29.519531-75zm29.519531 105c-3.054687 46.886719-19.925781 75-29.519531 75s-26.464844-28.113281-29.519531-75zm17.492188 61.714844c6.898437-17.425782 11.226562-38.832032 12.546875-61.726563h29.183594c-4.390626 26.070313-20.023438 48.375-41.730469 61.726563zm41.730469-91.714844h-29.183594c-1.324219-22.890625-5.648438-44.289062-12.546875-61.714844 21.707031 13.351563 37.339843 35.648438 41.730469 61.714844zm-135.753907-61.714844c-6.898437 17.425782-11.226562 38.824219-12.546875 61.714844h-29.183594c4.390626-26.066406 20.023438-48.363281 41.730469-61.714844zm0 0"/></svg>